<svg xmlns="http://www.w3.org/2000/svg" xmlns:xlink="http://www.w3.org/1999/xlink" width="1920" zoomAndPan="magnify" viewBox="0 0 1440 809.999993" height="1080" preserveAspectRatio="xMidYMid meet" version="1.0"><defs><filter x="0%" y="0%" width="100%" height="100%" id="42caa83ef9"><feColorMatrix values="0 0 0 0 1 0 0 0 0 1 0 0 0 0 1 0 0 0 1 0" color-interpolation-filters="sRGB"/></filter><clipPath id="a8a25499d0"><path d="M 0 481 L 456 481 L 456 810 L 0 810 Z M 0 481 " clip-rule="nonzero"/></clipPath><clipPath id="c9163cad6d"><path d="M 141.667969 315.980469 L 728.628906 658.160156 L 424.609375 1179.660156 L -162.351562 837.480469 Z M 141.667969 315.980469 " clip-rule="nonzero"/></clipPath><clipPath id="c97e5cc9f4"><path d="M 455.65625 524.703125 L 450.507812 1119.382812 C 450.375 1134.898438 441.992188 1149.167969 428.503906 1156.839844 C 415.019531 1164.507812 398.46875 1164.421875 385.066406 1156.605469 L -123.738281 859.988281 C -137.144531 852.175781 -145.375 837.816406 -145.34375 822.300781 C -145.3125 806.785156 -137.027344 792.460938 -123.589844 784.699219 L 391.363281 487.21875 C 404.679688 479.527344 421.097656 479.558594 434.386719 487.304688 C 447.671875 495.050781 455.789062 509.324219 455.65625 524.703125 Z M 455.65625 524.703125 " clip-rule="nonzero"/></clipPath><clipPath id="e7e7a70aa3"><path d="M 0 0 L 456 0 L 456 329 L 0 329 Z M 0 0 " clip-rule="nonzero"/></clipPath><clipPath id="af15a9a3e6"><path d="M 141.667969 -165.019531 L 728.628906 177.160156 L 424.609375 698.660156 L -162.351562 356.480469 Z M 141.667969 -165.019531 " clip-rule="nonzero"/></clipPath><clipPath id="dce16b35e6"><path d="M 455.65625 43.703125 L 450.507812 638.382812 C 450.375 653.898438 441.992188 668.167969 428.503906 675.839844 C 415.019531 683.507812 398.46875 683.421875 385.066406 675.605469 L -123.738281 378.988281 C -137.144531 371.175781 -145.375 356.816406 -145.34375 341.300781 C -145.3125 325.785156 -137.027344 311.460938 -123.589844 303.699219 L 391.363281 6.21875 C 404.679688 -1.472656 421.097656 -1.441406 434.386719 6.304688 C 447.671875 14.050781 455.789062 28.324219 455.65625 43.703125 Z M 455.65625 43.703125 " clip-rule="nonzero"/></clipPath><clipPath id="e002e74e6c"><rect x="0" width="456" y="0" height="329"/></clipPath><clipPath id="f6e679760f"><path d="M 1117 0 L 1440 0 L 1440 361 L 1117 361 Z M 1117 0 " clip-rule="nonzero"/></clipPath><clipPath id="d0a51e0098"><path d="M 1016.125 55.910156 L 1435.960938 -187.53125 L 1650.863281 183.085938 L 1231.027344 426.527344 Z M 1016.125 55.910156 " clip-rule="nonzero"/></clipPath><clipPath id="d93173a8c5"><path d="M 1549.007812 21.511719 L 1548.722656 215.335938 C 1548.695312 232.050781 1539.785156 247.492188 1525.324219 255.878906 L 1356.40625 353.824219 C 1341.945312 362.210938 1324.117188 362.273438 1309.597656 353.992188 L 1141.238281 257.957031 C 1126.738281 249.6875 1117.800781 234.269531 1117.824219 217.578125 L 1118.109375 23.753906 C 1118.132812 7.035156 1127.046875 -8.40625 1141.507812 -16.789062 L 1310.421875 -114.738281 C 1324.882812 -123.121094 1342.710938 -123.183594 1357.230469 -114.902344 L 1525.59375 -18.867188 C 1540.089844 -10.597656 1549.03125 4.820312 1549.007812 21.511719 Z M 1549.007812 21.511719 " clip-rule="nonzero"/></clipPath><clipPath id="377bb56169"><path d="M 0.679688 0 L 323 0 L 323 361 L 0.679688 361 Z M 0.679688 0 " clip-rule="nonzero"/></clipPath><clipPath id="fb7e8010f1"><path d="M -100.875 55.910156 L 318.960938 -187.53125 L 533.863281 183.085938 L 114.027344 426.527344 Z M -100.875 55.910156 " clip-rule="nonzero"/></clipPath><clipPath id="6e2bda8e3c"><path d="M 432.007812 21.511719 L 431.722656 215.335938 C 431.695312 232.050781 422.785156 247.492188 408.324219 255.878906 L 239.40625 353.824219 C 224.945312 362.210938 207.117188 362.273438 192.597656 353.992188 L 24.238281 257.957031 C 9.738281 249.6875 0.800781 234.269531 0.824219 217.578125 L 1.109375 23.753906 C 1.132812 7.035156 10.046875 -8.40625 24.507812 -16.789062 L 193.421875 -114.738281 C 207.882812 -123.121094 225.710938 -123.183594 240.230469 -114.902344 L 408.59375 -18.867188 C 423.089844 -10.597656 432.03125 4.820312 432.007812 21.511719 Z M 432.007812 21.511719 " clip-rule="nonzero"/></clipPath><clipPath id="563e32de86"><rect x="0" width="323" y="0" height="361"/></clipPath><clipPath id="226cfdaa65"><path d="M 395 0 L 962 0 L 962 314 L 395 314 Z M 395 0 " clip-rule="nonzero"/></clipPath><clipPath id="a89e2aa021"><path d="M 610.371094 -288.164062 L 975.890625 -83.242188 L 745.449219 327.789062 L 379.929688 122.867188 Z M 610.371094 -288.164062 " clip-rule="nonzero"/></clipPath><clipPath id="1f0bc30c5a"><path d="M 644.359375 -267.242188 L 941.726562 -100.523438 C 950.574219 -95.5625 957.089844 -87.289062 959.839844 -77.523438 C 962.589844 -67.757812 961.347656 -57.300781 956.386719 -48.453125 L 764.199219 294.347656 C 759.238281 303.195312 750.964844 309.710938 741.199219 312.460938 C 731.433594 315.210938 720.976562 313.96875 712.128906 309.007812 L 414.757812 142.289062 C 405.910156 137.328125 399.394531 129.054688 396.644531 119.289062 C 393.898438 109.523438 395.140625 99.066406 400.101562 90.21875 L 592.289062 -252.582031 C 597.25 -261.429688 605.523438 -267.945312 615.289062 -270.695312 C 625.054688 -273.445312 635.511719 -272.203125 644.359375 -267.242188 Z M 644.359375 -267.242188 " clip-rule="nonzero"/></clipPath><clipPath id="9837b0187d"><path d="M 0 0 L 567 0 L 567 314 L 0 314 Z M 0 0 " clip-rule="nonzero"/></clipPath><clipPath id="678b4fadc0"><path d="M 215.371094 -288.164062 L 580.890625 -83.242188 L 350.449219 327.789062 L -15.070312 122.867188 Z M 215.371094 -288.164062 " clip-rule="nonzero"/></clipPath><clipPath id="eb6f35ce02"><path d="M 249.359375 -267.242188 L 546.726562 -100.523438 C 555.574219 -95.5625 562.089844 -87.289062 564.839844 -77.523438 C 567.589844 -67.757812 566.347656 -57.300781 561.386719 -48.453125 L 369.199219 294.347656 C 364.238281 303.195312 355.964844 309.710938 346.199219 312.460938 C 336.433594 315.210938 325.976562 313.96875 317.128906 309.007812 L 19.757812 142.289062 C 10.910156 137.328125 4.394531 129.054688 1.644531 119.289062 C -1.101562 109.523438 0.140625 99.066406 5.101562 90.21875 L 197.289062 -252.582031 C 202.25 -261.429688 210.523438 -267.945312 220.289062 -270.695312 C 230.054688 -273.445312 240.511719 -272.203125 249.359375 -267.242188 Z M 249.359375 -267.242188 " clip-rule="nonzero"/></clipPath><clipPath id="91bdacb16b"><rect x="0" width="567" y="0" height="314"/></clipPath><clipPath id="751c0c6032"><path d="M 0 0 L 264.78125 0 L 264.78125 272.398438 L 0 272.398438 Z M 0 0 " clip-rule="nonzero"/></clipPath><clipPath id="4123214920"><path d="M 89.949219 -77.273438 C -6.613281 -77.273438 -84.886719 1.003906 -84.886719 97.5625 C -84.886719 194.121094 -6.613281 272.398438 89.949219 272.398438 C 186.507812 272.398438 264.78125 194.121094 264.78125 97.5625 C 264.78125 1.003906 186.507812 -77.273438 89.949219 -77.273438 Z M 89.949219 -77.273438 " clip-rule="nonzero"/></clipPath><clipPath id="b57e246bb2"><path d="M 0 0 L 264.78125 0 L 264.78125 272.398438 L 0 272.398438 Z M 0 0 " clip-rule="nonzero"/></clipPath><clipPath id="0864e9005d"><path d="M 89.949219 -77.273438 C -6.613281 -77.273438 -84.886719 1.003906 -84.886719 97.5625 C -84.886719 194.121094 -6.613281 272.398438 89.949219 272.398438 C 186.507812 272.398438 264.78125 194.121094 264.78125 97.5625 C 264.78125 1.003906 186.507812 -77.273438 89.949219 -77.273438 Z M 89.949219 -77.273438 " clip-rule="nonzero"/></clipPath><clipPath id="0e8149725c"><rect x="0" width="265" y="0" height="273"/></clipPath><clipPath id="1c8456388f"><path d="M 881 511 L 1283 511 L 1283 810 L 881 810 Z M 881 511 " clip-rule="nonzero"/></clipPath><clipPath id="d3ba831eca"><path d="M 823.003906 586.925781 L 1204.082031 437.769531 L 1354.429688 821.898438 L 973.347656 971.050781 Z M 823.003906 586.925781 " clip-rule="nonzero"/></clipPath><clipPath id="289ef7c7b9"><path d="M 1032.785156 512.453125 L 1242.980469 572.734375 C 1255.972656 576.460938 1265.265625 587.894531 1266.257812 601.375 L 1282.828125 826.839844 C 1283.808594 840.179688 1275.980469 852.601562 1263.523438 857.480469 L 1064.253906 935.472656 C 1051.796875 940.347656 1037.617188 936.539062 1029.28125 926.074219 L 888.402344 749.265625 C 879.980469 738.695312 879.042969 723.992188 886.054688 712.433594 L 999.484375 525.488281 C 1006.375 514.128906 1020.015625 508.789062 1032.785156 512.453125 Z M 1032.785156 512.453125 " clip-rule="nonzero"/></clipPath><clipPath id="1a076ab987"><path d="M 0 0 L 402 0 L 402 299 L 0 299 Z M 0 0 " clip-rule="nonzero"/></clipPath><clipPath id="77cae3540d"><path d="M -57.996094 75.925781 L 323.082031 -73.230469 L 473.429688 310.898438 L 92.347656 460.050781 Z M -57.996094 75.925781 " clip-rule="nonzero"/></clipPath><clipPath id="6c02561081"><path d="M 151.785156 1.453125 L 361.980469 61.734375 C 374.972656 65.460938 384.265625 76.894531 385.257812 90.375 L 401.828125 315.839844 C 402.808594 329.179688 394.980469 341.601562 382.523438 346.480469 L 183.253906 424.472656 C 170.796875 429.347656 156.617188 425.539062 148.28125 415.074219 L 7.402344 238.265625 C -1.019531 227.695312 -1.957031 212.992188 5.054688 201.433594 L 118.484375 14.488281 C 125.375 3.128906 139.015625 -2.210938 151.785156 1.453125 Z M 151.785156 1.453125 " clip-rule="nonzero"/></clipPath><clipPath id="9111ba72cc"><rect x="0" width="402" y="0" height="299"/></clipPath><mask id="b4c8dec802"><g filter="url(#42caa83ef9)"><rect x="-144" width="1728" fill="#000000" y="-80.999999" height="971.999992" fill-opacity="0.36"/></g></mask><clipPath id="8e6b5eadd8"><path d="M 0 0 L 1440 0 L 1440 810 L 0 810 Z M 0 0 " clip-rule="nonzero"/></clipPath><clipPath id="288f99a78f"><rect x="0" width="1440" y="0" height="810"/></clipPath><clipPath id="e1f4f84fad"><rect x="0" width="1440" y="0" height="810"/></clipPath></defs><rect x="-144" width="1728" fill="#ffffff" y="-80.999999" height="971.999992" fill-opacity="1"/><rect x="-144" width="1728" fill="#5e17eb" y="-80.999999" height="971.999992" fill-opacity="1"/><g clip-path="url(#a8a25499d0)"><g clip-path="url(#c9163cad6d)"><g clip-path="url(#c97e5cc9f4)"><g transform="matrix(1, 0, 0, 1, 0, 481)"><g clip-path="url(#e002e74e6c)"><g clip-path="url(#e7e7a70aa3)"><g clip-path="url(#af15a9a3e6)"><g clip-path="url(#dce16b35e6)"><path fill="#5170ff" d="M 137.109375 -217.378906 L 776.4375 155.332031 L 450.792969 713.925781 L -188.535156 341.214844 Z M 137.109375 -217.378906 " fill-opacity="1" fill-rule="nonzero"/></g></g></g></g></g></g></g></g><g clip-path="url(#f6e679760f)"><g clip-path="url(#d0a51e0098)"><g clip-path="url(#d93173a8c5)"><g transform="matrix(1, 0, 0, 1, 1117, 0.000000000000039746)"><g clip-path="url(#563e32de86)"><g clip-path="url(#377bb56169)"><g clip-path="url(#fb7e8010f1)"><g clip-path="url(#6e2bda8e3c)"><path fill="#ffde59" d="M -106.667969 59.269531 L 324.753906 -190.890625 L 539.65625 179.726562 L 108.234375 429.886719 Z M -106.667969 59.269531 " fill-opacity="1" fill-rule="nonzero"/></g></g></g></g></g></g></g></g><g clip-path="url(#226cfdaa65)"><g clip-path="url(#a89e2aa021)"><g clip-path="url(#1f0bc30c5a)"><g transform="matrix(1, 0, 0, 1, 395, 0.000000000000039746)"><g clip-path="url(#91bdacb16b)"><g clip-path="url(#9837b0187d)"><g clip-path="url(#678b4fadc0)"><g clip-path="url(#eb6f35ce02)"><path fill="#7ed957" d="M 215.996094 -285.945312 L 580.089844 -81.816406 L 350.449219 327.789062 L -13.648438 123.664062 Z M 215.996094 -285.945312 " fill-opacity="1" fill-rule="nonzero"/></g></g></g></g></g></g></g></g><g clip-path="url(#751c0c6032)"><g clip-path="url(#4123214920)"><g transform="matrix(1, 0, 0, 1, 0, 0.000000000000039746)"><g clip-path="url(#0e8149725c)"><g clip-path="url(#b57e246bb2)"><g clip-path="url(#0864e9005d)"><path fill="#ff3131" d="M -84.886719 -77.273438 L 264.78125 -77.273438 L 264.78125 272.398438 L -84.886719 272.398438 Z M -84.886719 -77.273438 " fill-opacity="1" fill-rule="nonzero"/></g></g></g></g></g></g><g clip-path="url(#1c8456388f)"><g clip-path="url(#d3ba831eca)"><g clip-path="url(#289ef7c7b9)"><g transform="matrix(1, 0, 0, 1, 881, 511)"><g clip-path="url(#9111ba72cc)"><g clip-path="url(#1a076ab987)"><g clip-path="url(#77cae3540d)"><g clip-path="url(#6c02561081)"><path fill="#ff751f" d="M -64.957031 71.617188 L 325.269531 -81.117188 L 478 309.109375 L 87.777344 461.84375 Z M -64.957031 71.617188 " fill-opacity="1" fill-rule="nonzero"/></g></g></g></g></g></g></g></g><g mask="url(#b4c8dec802)"><g transform="matrix(1, 0, 0, 1, 0, 0.000000000000039746)"><g clip-path="url(#e1f4f84fad)"><g transform="matrix(1, 0, 0, 1, 0, 0.000000000000039746)"><g clip-path="url(#288f99a78f)"><g clip-path="url(#8e6b5eadd8)"><rect x="-524.16" width="2488.32" fill="#ffffff" y="-294.839997" height="1399.679988" fill-opacity="1"/></g></g></g></g></g></g></svg>